<svg width="1264.5911621093749px" height="177.2076171875px" xmlns="http://www.w3.org/2000/svg" viewBox="-382.29558105468743 -13.603808593750003 1264.5911621093749 177.2076171875" style="background: rgba(0, 0, 0, 0);" preserveAspectRatio="xMidYMid"><defs><linearGradient id="editing-gradient-gradient" x1="0" x2="1" y1="0.5" y2="0.5" gradientUnits="objectBoundingBox"><stop offset="0" stop-color="#f0f"></stop><stop offset="1" stop-color="#0ff"></stop></linearGradient></defs><g><g transform="translate(-206.1553258895874, 109.70000076293945)"><path d="M21.98 0L0.79 0L12.87-65.04L12.87-65.04Q22.67-66.13 36.98-66.13L36.98-66.13L36.98-66.13Q51.28-66.13 57.92-61.97L57.92-61.97L57.92-61.97Q64.55-57.82 64.55-49.45L64.55-49.45L64.55-49.45Q64.55-41.09 60.24-35.84L60.24-35.84L60.24-35.84Q55.94-30.59 48.51-28.91L48.51-28.91L48.51-28.91Q50.19-20.69 54.05-14.06L54.05-14.06L54.05-14.06Q57.62-7.82 61.78-5.84L61.78-5.84L61.78-5.84Q60.29-1.68 57.27 0.15L57.27 0.15L57.27 0.15Q54.25 1.98 49.95 1.98L49.95 1.98L49.95 1.98Q45.64 1.98 42.27-0.54L42.27-0.54L42.27-0.54Q38.91-3.07 36.23-7.72L36.23-7.72L36.23-7.72Q30.59-17.82 30.00-33.76L30.00-33.76L30.69-33.76L30.69-33.76Q38.02-33.96 41.68-37.77L41.68-37.77L41.68-37.77Q45.34-41.58 45.34-49.60L45.34-49.60L45.34-49.60Q45.34-59.60 36.93-59.99L36.93-59.99L34.75-59.99L34.75-59.99Q33.86-59.99 33.36-59.90L33.36-59.90L21.98 0ZM70.59-24.16L70.59-24.16L70.59-24.16Q70.59-42.87 80.29-54.65L80.29-54.65L80.29-54.65Q90.58-67.42 108.50-67.42L108.50-67.42L108.50-67.42Q121.47-67.42 128.01-61.13L128.01-61.13L128.01-61.13Q134.54-54.85 134.54-41.58L134.54-41.58L134.54-41.58Q134.54-21.38 124.25-9.60L124.25-9.60L124.25-9.60Q114.05 1.98 96.92 1.98L96.92 1.98L96.92 1.98Q83.56 1.98 77.07-4.70L77.07-4.70L77.07-4.70Q70.59-11.38 70.59-24.16ZM96.62-44.65L96.62-44.65L96.62-44.65Q92.17-26.83 92.17-12.77L92.17-12.77L92.17-12.77Q92.17-9.41 93.31-7.23L93.31-7.23L93.31-7.23Q94.45-5.05 97.47-5.05L97.47-5.05L97.47-5.05Q100.48-5.05 102.37-6.48L102.37-6.48L102.37-6.48Q104.25-7.92 105.73-11.19L105.73-11.19L105.73-11.19Q108.11-16.53 110.34-27.87L110.34-27.87L110.34-27.87Q112.56-39.20 112.76-43.91L112.76-43.91L112.76-43.91Q112.96-48.61 112.96-52.17L112.96-52.17L112.96-52.17Q112.96-55.74 111.87-58.01L111.87-58.01L111.87-58.01Q110.78-60.29 107.86-60.29L107.86-60.29L107.86-60.29Q104.94-60.29 102.96-58.51L102.96-58.51L102.96-58.51Q99.30-55.14 96.62-44.65ZM138.40-0.49L138.40-0.49L150.88-65.34L150.88-65.34Q162.56-66.33 170.08-66.33L170.08-66.33L170.08-66.33Q177.61-66.33 182.46-65.69L182.46-65.69L182.46-65.69Q187.31-65.04 190.57-63.36L190.57-63.36L190.57-63.36Q197.11-60.19 197.11-51.48L197.11-51.48L197.11-51.48Q197.11-46.43 192.75-42.17L192.75-42.17L192.75-42.17Q188.69-38.31 184.24-37.42L184.24-37.42L184.24-37.42Q188.99-36.63 192.36-33.07L192.36-33.07L192.36-33.07Q195.92-29.30 195.92-23.46L195.92-23.46L195.92-23.46Q195.92-12.18 187.51-5.59L187.51-5.59L187.51-5.59Q179.09 0.99 162.56 0.99L162.56 0.99L162.56 0.99Q151.17 0.99 138.40-0.49ZM165.33-31.88L160.38-6.24L160.38-6.24Q161.27-6.14 161.47-6.14L161.47-6.14L162.36-6.14L162.36-6.14Q170.48-6.14 173.94-11.48L173.94-11.48L173.94-11.48Q176.52-15.64 176.52-23.27L176.52-23.27L176.52-23.27Q176.52-27.32 173.89-29.50L173.89-29.50L173.89-29.50Q171.27-31.68 165.33-31.88L165.33-31.88ZM180.38-51.38L180.38-51.38L180.38-51.38Q180.38-59.60 172.46-59.60L172.46-59.60L171.57-59.60L171.57-59.60Q171.17-59.60 170.58-59.50L170.58-59.50L166.62-38.61L167.61-38.61L167.61-38.61Q180.38-38.91 180.38-51.38ZM201.47-0.49L201.47-0.49L213.94-65.34L213.94-65.34Q225.62-66.33 233.14-66.33L233.14-66.33L233.14-66.33Q240.67-66.33 245.52-65.69L245.52-65.69L245.52-65.69Q250.37-65.04 253.64-63.36L253.64-63.36L253.64-63.36Q260.17-60.19 260.17-51.48L260.17-51.48L260.17-51.48Q260.17-46.43 255.82-42.17L255.82-42.17L255.82-42.17Q251.76-38.31 247.30-37.42L247.30-37.42L247.30-37.42Q252.05-36.63 255.42-33.07L255.42-33.07L255.42-33.07Q258.98-29.30 258.98-23.46L258.98-23.46L258.98-23.46Q258.98-12.18 250.57-5.59L250.57-5.59L250.57-5.59Q242.15 0.99 225.62 0.99L225.62 0.99L225.62 0.99Q214.24 0.99 201.47-0.49ZM228.39-31.88L223.44-6.24L223.44-6.24Q224.33-6.14 224.53-6.14L224.53-6.14L225.42-6.14L225.42-6.14Q233.54-6.14 237.01-11.48L237.01-11.48L237.01-11.48Q239.58-15.64 239.58-23.27L239.58-23.27L239.58-23.27Q239.58-27.32 236.96-29.50L236.96-29.50L236.96-29.50Q234.33-31.68 228.39-31.88L228.39-31.88ZM243.44-51.38L243.44-51.38L243.44-51.38Q243.44-59.60 235.52-59.60L235.52-59.60L234.63-59.60L234.63-59.60Q234.23-59.60 233.64-59.50L233.64-59.50L229.68-38.61L230.67-38.61L230.67-38.61Q243.44-38.91 243.44-51.38ZM286.01 0L264.43 0L277.00-65.34L298.78-65.34L286.01 0ZM343.23-15.25L343.23-15.25L343.23-15.25Q345.11-12.87 345.11-9.01L345.11-9.01L345.11-9.01Q345.11-3.66 341.15-0.84L341.15-0.84L341.15-0.84Q337.19 1.98 330.96 1.98L330.96 1.98L330.96 1.98Q327.39 1.98 321.95 1.19L321.95 1.19L321.95 1.19Q311.26-0.49 307.99-0.49L307.99-0.49L307.99-0.49Q304.72-0.49 303.44-0.35L303.44-0.35L303.44-0.35Q302.15-0.20 300.07 0L300.07 0L312.25-65.34L354.91-65.34L354.91-65.34Q354.91-59.30 351.99-56.13L351.99-56.13L351.99-56.13Q349.07-52.97 343.33-52.97L343.33-52.97L343.33-52.97Q337.59-52.97 331.75-55.64L331.75-55.64L328.68-38.31L346.30-38.31L346.30-38.31Q346.30-33.07 343.73-30.15L343.73-30.15L343.73-30.15Q341.15-27.23 336.85-27.23L336.85-27.23L336.85-27.23Q332.54-27.23 329.87-28.21L329.87-28.21L329.87-28.21Q327.19-29.21 326.90-29.50L326.90-29.50L323.33-10.79L323.33-10.79Q325.71-10.49 330.16-10.49L330.16-10.49L330.16-10.49Q337.79-10.49 343.23-15.25ZM426.29-20.49L426.29-20.49L426.29-20.49Q428.87-18.61 428.87-14.60L428.87-14.60L428.87-14.60Q428.87-10.59 427.14-7.77L427.14-7.77L427.14-7.77Q425.40-4.95 422.04-2.77L422.04-2.77L422.04-2.77Q414.81 1.88 402.19 1.88L402.19 1.88L402.19 1.88Q389.56 1.88 382.68-4.70L382.68-4.70L382.68-4.70Q375.80-11.29 375.80-22.97L375.80-22.97L375.80-22.97Q375.80-39.50 384.42-52.07L384.42-52.07L384.42-52.07Q390.95-61.38 402.63-65.34L402.63-65.34L402.63-65.34Q408.67-67.32 414.61-67.32L414.61-67.32L414.61-67.32Q420.55-67.32 424.21-66.53L424.21-66.53L424.21-66.53Q427.88-65.74 430.65-64.15L430.65-64.15L430.65-64.15Q436.69-60.69 436.69-55.14L436.69-55.14L436.69-55.14Q436.69-50.09 431.94-46.33L431.94-46.33L431.94-46.33Q427.58-42.97 424.02-42.97L424.02-42.97L424.02-42.97Q420.45-42.97 418.97-43.46L418.97-43.46L418.97-43.46Q419.36-47.03 419.36-49.35L419.36-49.35L419.36-49.35Q419.36-51.68 419.26-53.36L419.26-53.36L419.26-53.36Q419.17-55.04 418.67-56.63L418.67-56.63L418.67-56.63Q417.68-60.29 414.66-60.29L414.66-60.29L414.66-60.29Q411.64-60.29 408.62-57.47L408.62-57.47L408.62-57.47Q405.60-54.65 403.03-49.90L403.03-49.90L403.03-49.90Q397.19-39.11 397.19-26.33L397.19-26.33L397.19-26.33Q397.19-20.20 400.65-16.68L400.65-16.68L400.65-16.68Q404.12-13.17 411.54-13.17L411.54-13.17L411.54-13.17Q417.09-13.17 422.33-16.83L422.33-16.83L422.33-16.83Q424.61-18.41 426.29-20.49ZM474.01-7.43L474.01-7.43L474.01-7.43Q474.01-14.36 476.78-28.21L476.78-28.21L462.13-28.21L456.69 0L436.00 0L448.57-65.34L469.46-65.34L463.72-36.14L478.37-36.14L483.81-65.34L504.70-65.34L504.70-65.34Q503.32-58.01 501.53-49.80L501.53-49.80L498.17-33.66L498.17-33.66Q494.41-14.85 494.41-6.63L494.41-6.63L494.41-6.63Q494.41-3.27 495.50-1.39L495.50-1.39L495.50-1.39Q490.54 1.98 484.75 1.98L484.75 1.98L484.75 1.98Q478.96 1.98 476.49-0.79L476.49-0.79L476.49-0.79Q474.01-3.56 474.01-7.43ZM527.37 0L506.19 0L518.26-65.04L518.26-65.04Q528.07-66.13 542.37-66.13L542.37-66.13L542.37-66.13Q556.68-66.13 563.31-61.97L563.31-61.97L563.31-61.97Q569.94-57.82 569.94-49.45L569.94-49.45L569.94-49.45Q569.94-41.09 565.64-35.84L565.64-35.84L565.64-35.84Q561.33-30.59 553.90-28.91L553.90-28.91L553.90-28.91Q555.59-20.69 559.45-14.06L559.45-14.06L559.45-14.06Q563.01-7.82 567.17-5.84L567.17-5.84L567.17-5.84Q565.69-1.68 562.67 0.15L562.67 0.15L562.67 0.15Q559.65 1.98 555.34 1.98L555.34 1.98L555.34 1.98Q551.03 1.98 547.67-0.54L547.67-0.54L547.67-0.54Q544.30-3.07 541.63-7.72L541.63-7.72L541.63-7.72Q535.99-17.82 535.39-33.76L535.39-33.76L536.09-33.76L536.09-33.76Q543.41-33.96 547.07-37.77L547.07-37.77L547.07-37.77Q550.74-41.58 550.74-49.60L550.74-49.60L550.74-49.60Q550.74-59.60 542.32-59.99L542.32-59.99L540.14-59.99L540.14-59.99Q539.25-59.99 538.76-59.90L538.76-59.90L527.37 0ZM616.77-15.25L616.77-15.25L616.77-15.25Q618.65-12.87 618.65-9.01L618.65-9.01L618.65-9.01Q618.65-3.66 614.69-0.84L614.69-0.84L614.69-0.84Q610.73 1.98 604.49 1.98L604.49 1.98L604.49 1.98Q600.93 1.98 595.49 1.19L595.49 1.19L595.49 1.19Q584.79-0.49 581.53-0.49L581.53-0.49L581.53-0.49Q578.26-0.49 576.97-0.35L576.97-0.35L576.97-0.35Q575.68-0.20 573.61 0L573.61 0L585.78-65.34L628.45-65.34L628.45-65.34Q628.45-59.30 625.53-56.13L625.53-56.13L625.53-56.13Q622.61-52.97 616.87-52.97L616.87-52.97L616.87-52.97Q611.13-52.97 605.29-55.64L605.29-55.64L602.22-38.31L619.84-38.31L619.84-38.31Q619.84-33.07 617.26-30.15L617.26-30.15L617.26-30.15Q614.69-27.23 610.38-27.23L610.38-27.23L610.38-27.23Q606.08-27.23 603.40-28.21L603.40-28.21L603.40-28.21Q600.73-29.21 600.43-29.50L600.43-29.50L596.87-10.79L596.87-10.79Q599.25-10.49 603.70-10.49L603.70-10.49L603.70-10.49Q611.32-10.49 616.77-15.25ZM637.96 0L627.07 0L638.95-65.34L660.23-65.34L675.68-20.39L683.89-65.34L694.88-65.24L682.80 0L660.13 0L645.88-43.26L637.96 0ZM735.97-45.74L735.97-45.74L735.97-45.74Q737.45-48.71 737.45-51.48L737.45-51.48L737.45-51.48Q737.45-54.25 737.15-55.79L737.15-55.79L737.15-55.79Q736.86-57.32 736.16-58.51L736.16-58.51L736.16-58.51Q734.68-61.08 731.71-61.08L731.71-61.08L731.71-61.08Q728.05-61.08 725.08-58.41L725.08-58.41L725.08-58.41Q721.91-55.64 721.91-51.28L721.91-51.28L721.91-51.28Q721.91-48.51 723.84-46.38L723.84-46.38L723.84-46.38Q725.77-44.25 728.74-42.27L728.74-42.27L728.74-42.27Q731.71-40.29 735.08-38.31L735.08-38.31L735.08-38.31Q738.44-36.33 741.41-33.96L741.41-33.96L741.41-33.96Q748.24-28.51 748.24-21.19L748.24-21.19L748.24-21.19Q748.24-16.24 745.62-12.03L745.62-12.03L745.62-12.03Q743.00-7.82 738.64-4.75L738.64-4.75L738.64-4.75Q729.13 1.98 716.56 1.98L716.56 1.98L716.56 1.98Q706.37 1.98 701.12-1.34L701.12-1.34L701.12-1.34Q695.87-4.65 695.87-9.70L695.87-9.70L695.87-9.70Q695.87-18.71 702.90-20.99L702.90-20.99L702.90-20.99Q704.88-21.68 707.90-21.68L707.90-21.68L707.90-21.68Q710.92-21.68 714.38-20.39L714.38-20.39L714.38-20.39Q712.80-16.34 712.80-12.67L712.80-12.67L712.80-12.67Q712.80-4.75 718.44-4.75L718.44-4.75L718.44-4.75Q722.11-4.75 725.13-7.43L725.13-7.43L725.13-7.43Q728.14-10.10 728.14-13.12L728.14-13.12L728.14-13.12Q728.14-16.14 726.21-18.32L726.21-18.32L726.21-18.32Q724.28-20.49 721.41-22.23L721.41-22.23L721.41-22.23Q718.54-23.96 715.23-25.64L715.23-25.64L715.23-25.64Q711.91-27.32 709.04-29.70L709.04-29.70L709.04-29.70Q702.31-35.15 702.31-43.86L702.31-43.86L702.31-43.86Q702.31-49.50 705.08-53.91L705.08-53.91L705.08-53.91Q707.85-58.31 712.30-61.28L712.30-61.28L712.30-61.28Q721.22-67.32 732.15-67.32L732.15-67.32L732.15-67.32Q743.09-67.32 748.39-64.05L748.39-64.05L748.39-64.05Q753.69-60.79 753.69-55.24L753.69-55.24L753.69-55.24Q753.69-50.39 749.92-47.32L749.92-47.32L749.92-47.32Q746.66-44.75 742.70-44.75L742.70-44.75L742.70-44.75Q738.74-44.75 735.97-45.74ZM798.73 1.98L798.73 1.98L798.73 1.98Q786.06 1.98 784.87-16.04L784.87-16.04L767.84-16.04L767.84-16.04Q765.86-11.48 764.48-7.52L764.48-7.52L761.90 0L748.04 0L779.23-65.34L800.51-65.34L804.67-17.23L804.67-17.23Q805.66-6.83 809.62-3.76L809.62-3.76L809.62-3.76Q806.75 1.98 798.73 1.98ZM776.36-35.84L770.91-23.27L784.57-23.27L783.39-48.71L783.39-51.38L776.36-35.84ZM817.84-61.38L817.84-61.38L817.84-61.38Q819.22-64.15 822.24-65.69L822.24-65.69L822.24-65.69Q825.26-67.22 829.42-67.22L829.42-67.22L829.42-67.22Q835.96-67.22 839.87-62.52L839.87-62.52L839.87-62.52Q843.78-57.82 843.78-47.52L843.78-47.52L843.78-12.18L866.45-65.24L878.13-65.24L880.80-15.15L880.51-12.28L904.07-65.24L917.63-65.24L885.95 0L864.86 0L862.88-30.10L849.82 0L825.96 0L822.99-47.52L822.99-47.52Q822.69-52.87 821.25-56.38L821.25-56.38L821.25-56.38Q819.82-59.90 817.84-61.38Z" fill="url(#editing-gradient-gradient)"></path></g></g><style>text {
  font-size: 64px;
  font-family: Arial Black;
  dominant-baseline: central;
  text-anchor: middle;
}</style></svg>